<svg xmlns="http://www.w3.org/2000/svg" width="350" height="60" viewBox="0 0 350 60"><defs><style>.a{fill:#ffc440;}.b{fill:#20552c;}</style></defs><g transform="translate(-465 -236)"><rect class="a" width="350" height="60" rx="30" transform="translate(465 236)"/><path class="b" d="M-65.426-9.07h1.2a3.981,3.981,0,0,0,2.508-.662,2.317,2.317,0,0,0,.832-1.928,2.376,2.376,0,0,0-.7-1.887,3.267,3.267,0,0,0-2.186-.609h-1.652Zm8.2-2.719a5.237,5.237,0,0,1-1.729,4.23,7.393,7.393,0,0,1-4.916,1.465h-1.559V0h-3.633V-17.133h5.473a7.279,7.279,0,0,1,4.74,1.342A4.892,4.892,0,0,1-57.223-11.789ZM-53.988,0V-17.133h3.633V-3h6.949V0Zm24.047,0-1.242-4.078H-37.43L-38.672,0h-3.914l6.047-17.2H-32.1L-26.027,0Zm-2.109-7.125q-1.723-5.543-1.939-6.27t-.311-1.148q-.387,1.5-2.215,7.418Zm12.07-2.953,3.574-7.055h3.914L-18.176-6.668V0h-3.609V-6.551l-5.684-10.582h3.938ZM6.387,0,5.145-4.078H-1.1L-2.344,0H-6.258L-.211-17.2H4.23L10.3,0ZM4.277-7.125q-1.723-5.543-1.939-6.27t-.311-1.148q-.387,1.5-2.215,7.418Zm14.2-2.5h6.8V-.738a19.162,19.162,0,0,1-3.111.756,20.266,20.266,0,0,1-2.982.217A7.546,7.546,0,0,1,13.26-2.045Q11.215-4.324,11.215-8.59a8.632,8.632,0,0,1,2.373-6.469,9.011,9.011,0,0,1,6.58-2.32,12.732,12.732,0,0,1,5.086,1.055l-1.207,2.906a8.621,8.621,0,0,0-3.9-.937,4.819,4.819,0,0,0-3.773,1.582A6.137,6.137,0,0,0,14.953-8.52,6.832,6.832,0,0,0,16.1-4.26a3.953,3.953,0,0,0,3.322,1.471,11.751,11.751,0,0,0,2.309-.234V-6.6H18.48ZM39.844,0,38.6-4.078H32.355L31.113,0H27.2l6.047-17.2h4.441L43.758,0ZM37.734-7.125q-1.723-5.543-1.939-6.27t-.311-1.148q-.387,1.5-2.215,7.418ZM45.914,0V-17.133h3.633V0ZM69.059,0H64.441L56.988-12.961h-.105q.223,3.434.223,4.9V0H53.859V-17.133h4.582L65.883-4.3h.082q-.176-3.34-.176-4.723v-8.109h3.27Z" transform="translate(640 274)"/></g></svg>