<svg xmlns="http://www.w3.org/2000/svg" width="350" height="60" viewBox="0 0 350 60"><defs><style>.a{fill:#ffc440;}.b{fill:#20552c;}</style></defs><g transform="translate(-465 -296)"><rect class="a" width="350" height="60" rx="30" transform="translate(465 296)"/><path class="b" d="M-55.447,0H-59.08V-14.109h-4.652v-3.023h12.938v3.023h-4.652Zm10.922-9.527h1.172a4.483,4.483,0,0,0,2.543-.574,2.05,2.05,0,0,0,.82-1.8,1.875,1.875,0,0,0-.838-1.734,5.084,5.084,0,0,0-2.6-.516h-1.1Zm0,2.953V0h-3.633V-17.133h4.992A8.544,8.544,0,0,1-38-15.861,4.538,4.538,0,0,1-36.322-12a4.546,4.546,0,0,1-.832,2.689A5.505,5.505,0,0,1-39.51-7.465Q-35.643-1.687-34.471,0H-38.5l-4.09-6.574Zm17.543-3.5,3.574-7.055h3.914L-25.178-6.668V0h-3.609V-6.551l-5.684-10.582h3.938ZM-.615,0-1.857-4.078H-8.1L-9.346,0H-13.26l6.047-17.2h4.441L3.3,0ZM-2.725-7.125q-1.723-5.543-1.939-6.27t-.311-1.148q-.387,1.5-2.215,7.418Zm14.2-2.5h6.8V-.738a19.162,19.162,0,0,1-3.111.756,20.266,20.266,0,0,1-2.982.217A7.546,7.546,0,0,1,6.258-2.045Q4.213-4.324,4.213-8.59a8.632,8.632,0,0,1,2.373-6.469,9.011,9.011,0,0,1,6.58-2.32,12.732,12.732,0,0,1,5.086,1.055l-1.207,2.906a8.621,8.621,0,0,0-3.9-.937,4.819,4.819,0,0,0-3.773,1.582A6.137,6.137,0,0,0,7.951-8.52,6.832,6.832,0,0,0,9.094-4.26a3.953,3.953,0,0,0,3.322,1.471,11.751,11.751,0,0,0,2.309-.234V-6.6H11.479ZM32.842,0,31.6-4.078H25.354L24.111,0H20.2l6.047-17.2h4.441L36.756,0ZM30.732-7.125q-1.723-5.543-1.939-6.27t-.311-1.148q-.387,1.5-2.215,7.418ZM38.912,0V-17.133h3.633V0ZM62.057,0H57.439L49.986-12.961h-.105q.223,3.434.223,4.9V0H46.857V-17.133h4.582L58.881-4.3h.082q-.176-3.34-.176-4.723v-8.109h3.27Z" transform="translate(640 334)"/></g></svg>