<svg xmlns="http://www.w3.org/2000/svg" width="356.289" height="123.867" viewBox="0 0 356.289 123.867"><defs><style>.a{fill:#fff;}</style></defs><path class="a" d="M-142.3-4.57q-7.031,5.781-18.4,5.781a15.156,15.156,0,0,1-10.312-3.828q-5.7-4.961-7.266-14.375a34.21,34.21,0,0,1-.43-5.312q0-9.1,4.766-23.242a83.115,83.115,0,0,1,8.359-17.793q5.078-8.066,11.6-11.465a14.972,14.972,0,0,1,6.953-1.758q6.758,0,10.742,4.063a20.121,20.121,0,0,1,5.2,10.9,2.579,2.579,0,0,1-.84,1.543,2.24,2.24,0,0,1-1.562.684q-.84,0-1.27-1.094-.937-2.617-1.875-4.844-3.047-7.5-10.391-7.5-5.9,0-11.484,5.625-7.188,7.344-11.855,21.016t-4.668,22.148q0,8.477,2.773,14.141,3.672,7.5,12.109,7.5,13.867,0,18.867-7.7a15.891,15.891,0,0,0,2.344-6.25,3.937,3.937,0,0,1-.137-.859,3.957,3.957,0,0,0-.957-1.6q-.937-1.172-3.848-4.043a42.54,42.54,0,0,0-5.371-4.59q-5.156,1.055-11.68,1.914-1.6-.156-1.6-1.445a2.408,2.408,0,0,1,.938-1.836q5.313-3.789,9.063-3.789a9.316,9.316,0,0,1,4.492,1.211q9.609-2.109,21.758-5.977,1.914,0,1.914,1.328a3.876,3.876,0,0,1-.312,1.211A138.211,138.211,0,0,0-140.234,1.914q-2.656,10.039-4.238,18.535t-2.559,13.145a2.467,2.467,0,0,1-.859,1.621,2.178,2.178,0,0,1-1.367.645q-1.289,0-1.445-1.719,2.656-16.875,4.512-24.277T-142.3-4.57Zm-1.914-23.906q3.594,3.437,4.16,4.023t1.621,1.563a14.309,14.309,0,0,1,1.875,2.109q1.484-3.086,3.184-5.977t3.379-5.82Q-137.07-30.156-144.219-28.477ZM-121.094,0q-4.57,0-4.57-5.742t4.277-14.082a61.327,61.327,0,0,1,10.059-14.414q5.781-6.074,9.434-6.074t4.16,3.2q.156.977.234,2.07a1.514,1.514,0,0,1,.859-.234q1.836,0,1.836,1.758v.313q0,.117-.977,3.516a105.948,105.948,0,0,0-2.227,11.328A89.108,89.108,0,0,0-99.258-4.8q.352.234.82.527a10.19,10.19,0,0,1,1.172.9,1.83,1.83,0,0,1,.7,1.426A2.3,2.3,0,0,1-97.07-.488a1.733,1.733,0,0,1-1.445.645A4.4,4.4,0,0,1-101.973-1.8a6.673,6.673,0,0,1-1.543-4.219q0-4.883,2.656-16.8a66.259,66.259,0,0,1-8.594,13.4q-5.273,6.445-7.285,7.93A7.188,7.188,0,0,1-121.094,0Zm-.586-5.586q0,1.445,1.211,1.445a1.964,1.964,0,0,0,1.445-.586q8.086-6.953,14.492-19.258a66.068,66.068,0,0,0,3.848-8.086,9.235,9.235,0,0,0,.215-1.8,2.73,2.73,0,0,0-.391-1.406,1.212,1.212,0,0,0-1.094-.664,4.959,4.959,0,0,0-2.07.742q-3.008,1.641-7.4,6.992a54.6,54.6,0,0,0-7.324,11.641Q-121.68-10.273-121.68-5.586ZM-87.812,0A33.522,33.522,0,0,0-86.7-4.59a34.865,34.865,0,0,1,1.27-5.02A281.111,281.111,0,0,0-79.961-37.7q.117-.7.176-1.328A4.184,4.184,0,0,1-78.633-40.9a3.876,3.876,0,0,1,1.211-.312q1.094,0,1.445,1.367v.625A61.084,61.084,0,0,1-77.734-26.8l-1.992,8.4q.859-1.8,1.875-4.141,4.3-9.922,8.008-14.043T-61.8-40.7a4.757,4.757,0,0,1,3.906,1.934,7.079,7.079,0,0,1,1.523,4.512,5.239,5.239,0,0,1-.039.684,4.578,4.578,0,0,0-.039.605,23.59,23.59,0,0,1,9.023-7.187,7.275,7.275,0,0,1,2.91-.625,3.873,3.873,0,0,1,2.793,1.387,5.168,5.168,0,0,1,1.328,3.73,27.3,27.3,0,0,1-.508,5.039q-.508,2.7-1.27,5.43t-1.719,5.527q-.957,2.793-2.48,7.754a43.617,43.617,0,0,0-1.8,7.6,21.962,21.962,0,0,1-.449,3.145,4.447,4.447,0,0,1-.7,1.191A1.746,1.746,0,0,1-50.781.7Q-52.617.7-52.617-3.2a17.745,17.745,0,0,1,.9-5.312q.9-2.852,1.465-4.8t1.543-4.687q.977-2.734,2.422-7.187a43.848,43.848,0,0,0,1.914-9.531q0-1.641-.41-1.934a2.653,2.653,0,0,0-1.465-.293,6.976,6.976,0,0,0-3.184,1.367,20.873,20.873,0,0,0-4.316,3.867,38.018,38.018,0,0,0-7.344,14.1q-.7,2.5-1.328,4.3T-64.082-8.4q-1.035,3.125-1.641,5.488A10.878,10.878,0,0,1-66.777.078,1.68,1.68,0,0,1-68.242.7q-1.836,0-1.992-1.992a56.107,56.107,0,0,1,2.813-11.6q1.875-5.039,3.047-8.008t2.266-6.7a23.4,23.4,0,0,0,1.094-6.426q0-2.7-1.68-2.7-4.609,0-12.109,15.156A109.322,109.322,0,0,0-79.687-10.9q-.859,2.578-1.328,3.945Q-83.594,1.133-85.9,1.133A2.618,2.618,0,0,1-87.246.8.947.947,0,0,1-87.812,0Zm72.07-6.562q1.367,0,1.367,1.445,0,1.68-4.1,3.789A15.79,15.79,0,0,1-25.312.781a7.545,7.545,0,0,1-4.1-.9,6.718,6.718,0,0,1-2.227-2.5,15.727,15.727,0,0,1-1.68-7.539,45.566,45.566,0,0,1,2.344-14.727,34.286,34.286,0,0,1,6.25-11.465Q-20.82-40.9-16.289-40.9a4.383,4.383,0,0,1,3.809,2.012,8.155,8.155,0,0,1,1.387,4.746,14,14,0,0,1-2.676,8.672,21.9,21.9,0,0,1-6.582,5.82,69.091,69.091,0,0,1-8.984,4.3l-.156,5.742q0,6.719,4.063,6.719a9.837,9.837,0,0,0,4.59-1.27q2.4-1.27,3.457-1.836A3.861,3.861,0,0,1-15.742-6.562Zm.977-27.422q0-3.125-2.617-3.125-2.344,0-5.508,4.219a35.458,35.458,0,0,0-5.234,11.133,14.1,14.1,0,0,0-.586,2.539q1.562-.859,3.2-1.641t3.2-1.641a17,17,0,0,0,5.566-4.668A11.186,11.186,0,0,0-14.766-33.984ZM39.8,1.758q-14.258,0-14.258-25.352a75.418,75.418,0,0,1,6.6-31.641q7.148-15.82,18.633-15.82a13.109,13.109,0,0,1,8.4,3.2,2.391,2.391,0,0,1,.7,1.6q0,1.914-1.289,1.914a6.954,6.954,0,0,1-1.836-.82,14.853,14.853,0,0,0-7.227-1.953q-4.8,0-9.609,6.27a50.083,50.083,0,0,0-7.773,16.113A67.121,67.121,0,0,0,29.18-25.273q0,18.555,6.875,22.461a9.214,9.214,0,0,0,4.414.9,14.217,14.217,0,0,0,5.82-1.367q8.4-3.867,14.1-16.328a79.6,79.6,0,0,0,5.469-16.719A82.922,82.922,0,0,0,67.734-53.5a32.985,32.985,0,0,0-3.086-14.629q-2.227-4.453-5.781-5.469-1.8-.469-3.418-.781a20.451,20.451,0,0,1-2.754-.7q-1.133-.391-1.133-1.172,0-1.484,1.992-1.758,15.664,0,17.578,20.508a74.763,74.763,0,0,1,.352,7.5A72.088,72.088,0,0,1,69.16-32.246a71.359,71.359,0,0,1-6.6,16.934A40.611,40.611,0,0,1,52.441-2.891,19.889,19.889,0,0,1,39.8,1.758ZM89.414-53.828q11.133.859,11.133,13.652t-8.789,28.73a84.744,84.744,0,0,1-6.6,10.078q-1.211,1.6-2.148,1.6-1.992,0-2.227-1.68-1.406-9.922-2.266-18.105t-2.461-19.98a2.761,2.761,0,0,1,.918-1.348,2.058,2.058,0,0,1,1.27-.566q1.133,0,1.484,1.367.859,7.852,1.953,16.367T83.906-5.586a116.781,116.781,0,0,0,8.125-14.453q4.727-10.977,4.727-19.434T91.836-49.8a11.325,11.325,0,0,0-2.578-.7,5.464,5.464,0,0,1-1.621-.391.956.956,0,0,1-.449-.937Q87.188-53.555,89.414-53.828ZM120.352-6.562q1.367,0,1.367,1.445,0,1.68-4.1,3.789A15.79,15.79,0,0,1,110.781.781a7.545,7.545,0,0,1-4.1-.9,6.718,6.718,0,0,1-2.227-2.5,15.727,15.727,0,0,1-1.68-7.539,45.566,45.566,0,0,1,2.344-14.727,34.286,34.286,0,0,1,6.25-11.465Q115.273-40.9,119.8-40.9a4.383,4.383,0,0,1,3.809,2.012A8.155,8.155,0,0,1,125-34.141a14,14,0,0,1-2.676,8.672,21.9,21.9,0,0,1-6.582,5.82,69.091,69.091,0,0,1-8.984,4.3L106.6-9.609q0,6.719,4.063,6.719a9.837,9.837,0,0,0,4.59-1.27q2.4-1.27,3.457-1.836A3.861,3.861,0,0,1,120.352-6.562Zm.977-27.422q0-3.125-2.617-3.125-2.344,0-5.508,4.219a35.458,35.458,0,0,0-5.234,11.133,14.1,14.1,0,0,0-.586,2.539q1.562-.859,3.2-1.641t3.2-1.641a17,17,0,0,0,5.566-4.668A11.186,11.186,0,0,0,121.328-33.984Zm7.93,33.828,1.8-9.531q1.406-7.3,1.914-10.371t1.152-6.758q.645-3.691,2.637-10.605a.96.96,0,0,1-.078-.352v-.391a2.857,2.857,0,0,1,1.445-2.7,1.649,1.649,0,0,1,.9-.273q1.68,0,1.68,2.422a20.738,20.738,0,0,1-1.133,5.059,68.153,68.153,0,0,0-1.758,6.777q.547-.9,1.348-2.266t2.539-3.984a26.16,26.16,0,0,1,4.375-4.98,8.072,8.072,0,0,1,5.391-2.363,5.6,5.6,0,0,1,4.2,1.484,1.683,1.683,0,0,1,.547,1.289,1.851,1.851,0,0,1-.7,1.406,2.169,2.169,0,0,1-1.445.625,2.834,2.834,0,0,1-1.445-.41,3.044,3.044,0,0,0-1.562-.41,5.745,5.745,0,0,0-2.734,1.406q-7.461,5.43-12.3,21.523a59.323,59.323,0,0,0-1.562,5.918Q134.18-6.016,133.984-5q-1.172,6.289-3.594,6.289Q129.258,1.289,129.258-.156Zm46.953-87.852q1.016,0,1.367,1.367a68.851,68.851,0,0,1-1.016,8.516q-.9,5.312-1.836,13.457t-3.594,22.207q-2.656,14.063-5.977,28.047a2.38,2.38,0,0,1-2.227,1.6q-1.211,0-1.367-1.6a498.416,498.416,0,0,0,10.156-55.82q.508-4.023,1.25-7.93a57.317,57.317,0,0,0,.938-7.93,2.81,2.81,0,0,1,.9-1.348A2.137,2.137,0,0,1,176.211-88.008Zm-15.9,89.844a2.266,2.266,0,0,1-1.6-2.324,3.623,3.623,0,0,1,1.426-2.91A4.421,4.421,0,0,1,162.91-4.57a2.447,2.447,0,0,1,2.051.9,3.6,3.6,0,0,1,.7,2.285,7.066,7.066,0,0,1-1.113,3.34,3.3,3.3,0,0,1-2.91,1.953,1.388,1.388,0,0,1-1.055-.41,1.279,1.279,0,0,1-.391-.9A1.987,1.987,0,0,1,160.313,1.836Z" transform="translate(178.711 88.008)"/></svg>