<svg xmlns="http://www.w3.org/2000/svg" width="112.734" height="24.063" viewBox="0 0 112.734 24.063"><defs><style>.a{fill:#fff;}.b{fill:none;}</style></defs><g transform="translate(-1081 -744.938)"><path class="a" d="M-24.375-9.406q0,4.719-1.953,7.219a6.818,6.818,0,0,1-5.719,2.5,6.865,6.865,0,0,1-5.687-2.453Q-39.7-4.594-39.75-9.172v-4.187q0-4.766,1.977-7.234a6.868,6.868,0,0,1,5.7-2.469,6.875,6.875,0,0,1,5.688,2.445q1.969,2.445,2.016,7.023ZM-28.891-14a8.316,8.316,0,0,0-.773-4.117,2.614,2.614,0,0,0-2.414-1.289A2.568,2.568,0,0,0-34.43-18.18a7.782,7.782,0,0,0-.8,3.836v5.531a8.729,8.729,0,0,0,.758,4.133,2.58,2.58,0,0,0,2.43,1.352,2.536,2.536,0,0,0,2.391-1.3,8.52,8.52,0,0,0,.766-3.969ZM-10.359,0h-4.516V-17.406l-5.391,1.672v-3.672l9.422-3.375h.484Zm7.8-2.219a2.273,2.273,0,0,1,.727-1.75,2.578,2.578,0,0,1,1.82-.672,2.6,2.6,0,0,1,1.836.672,2.273,2.273,0,0,1,.727,1.75A2.242,2.242,0,0,1,1.828-.492,2.61,2.61,0,0,1-.016.172,2.589,2.589,0,0,1-1.844-.492,2.242,2.242,0,0,1-2.562-2.219Zm0-12.8a2.273,2.273,0,0,1,.727-1.75,2.578,2.578,0,0,1,1.82-.672,2.6,2.6,0,0,1,1.836.672,2.273,2.273,0,0,1,.727,1.75,2.242,2.242,0,0,1-.719,1.727,2.61,2.61,0,0,1-1.844.664,2.589,2.589,0,0,1-1.828-.664A2.242,2.242,0,0,1-2.562-15.016Zm13.219,1.641h2.406a3.391,3.391,0,0,0,2.547-.859,3.149,3.149,0,0,0,.828-2.281,2.784,2.784,0,0,0-.82-2.141,3.179,3.179,0,0,0-2.258-.766,3.332,3.332,0,0,0-2.172.711,2.273,2.273,0,0,0-.875,1.852H5.8a5.553,5.553,0,0,1,.961-3.2,6.4,6.4,0,0,1,2.688-2.211,8.969,8.969,0,0,1,3.8-.8,8.506,8.506,0,0,1,5.656,1.727,5.891,5.891,0,0,1,2.047,4.758A4.787,4.787,0,0,1,20-13.7a6.192,6.192,0,0,1-2.5,2.016,5.653,5.653,0,0,1,2.867,2.063,5.6,5.6,0,0,1,.945,3.25A5.988,5.988,0,0,1,19.1-1.516,8.89,8.89,0,0,1,13.25.313a8.429,8.429,0,0,1-5.57-1.8,5.868,5.868,0,0,1-2.164-4.75h4.516a2.616,2.616,0,0,0,.961,2.094,3.541,3.541,0,0,0,2.367.813,3.558,3.558,0,0,0,2.523-.852A2.94,2.94,0,0,0,16.8-6.437q0-3.406-3.75-3.406H10.656ZM39.734-9.406q0,4.719-1.953,7.219a6.817,6.817,0,0,1-5.719,2.5,6.865,6.865,0,0,1-5.687-2.453q-1.969-2.453-2.016-7.031v-4.187q0-4.766,1.977-7.234a6.868,6.868,0,0,1,5.7-2.469,6.875,6.875,0,0,1,5.688,2.445q1.969,2.445,2.016,7.023ZM35.219-14a8.316,8.316,0,0,0-.773-4.117,2.614,2.614,0,0,0-2.414-1.289A2.568,2.568,0,0,0,29.68-18.18a7.782,7.782,0,0,0-.8,3.836v5.531a8.729,8.729,0,0,0,.758,4.133,2.58,2.58,0,0,0,2.43,1.352,2.536,2.536,0,0,0,2.391-1.3,8.52,8.52,0,0,0,.766-3.969Z" transform="translate(1154 768)"/><g transform="translate(1081 745)"><path class="b" d="M0,0H24V24H0Z"/><path class="a" d="M16.24,7.76A5.974,5.974,0,0,0,12,6v6L7.76,16.24a6,6,0,1,0,8.48-8.48ZM12,2A10,10,0,1,0,22,12,10,10,0,0,0,12,2Zm0,18a8,8,0,1,1,8-8A8,8,0,0,1,12,20Z"/></g></g></svg>