<svg xmlns="http://www.w3.org/2000/svg" width="473.828" height="120.82" viewBox="0 0 473.828 120.82"><defs><style>.a{fill:#fff;}</style></defs><path class="a" d="M-204.98-10q1.367,0,1.367,1.445a2.513,2.513,0,0,1-1.211,1.992q-1.836,1.25-3.711,2.656-6.8,5.078-12.5,5.078a12.163,12.163,0,0,1-6.094-1.641q-6.133-3.438-8.789-12.383a30.18,30.18,0,0,1-1.328-8.555,72.483,72.483,0,0,1,2.129-15.918A112.336,112.336,0,0,1-229-55.957a57.352,57.352,0,0,1,9.531-15.684q5.547-6.289,11.8-6.289a13.071,13.071,0,0,1,10.508,5.215q4.258,5.215,4.258,10.645a2.685,2.685,0,0,1-.82,1.523,2.026,2.026,0,0,1-1.406.7,1.234,1.234,0,0,1-1.055-.469,5.712,5.712,0,0,1-.7-2.578,13.93,13.93,0,0,0-3.555-8.066,9.629,9.629,0,0,0-7.3-3.105q-4.375,0-9.336,5.9-6.6,7.812-11.328,22.129t-4.727,22.617q0,8.3,2.813,13.887,3.438,6.8,9.922,6.8,4.766,0,10.938-4.453,1.719-1.25,2.773-2.031A3.211,3.211,0,0,1-204.98-10Zm28.945-30.391q7.383,0,7.383,11.172,0,8.711-4.8,18.711Q-176.7-3.789-181.27-.82A8.773,8.773,0,0,1-186.113.7a6.642,6.642,0,0,1-6.328-3.516,15.6,15.6,0,0,1-1.914-7.578,41.621,41.621,0,0,1,2.441-14.1,32.609,32.609,0,0,1,6.641-11.367Q-181.074-40.391-176.035-40.391ZM-186.5-27.461a36.718,36.718,0,0,0-4.219,16.484q0,5.586,3.086,7.5a3.968,3.968,0,0,0,2.148.586q2.5,0,5.586-4.336a40.225,40.225,0,0,0,5.2-10.684,35.506,35.506,0,0,0,2.109-10.9q0-4.551-.527-5.762a3.837,3.837,0,0,0-1.211-1.68,4.14,4.14,0,0,0-2.266-.469,6.36,6.36,0,0,0-3.457,1.25Q-183.691-33.125-186.5-27.461Zm47.5-4.18q0-3.867-2.109-3.867-2.812,0-10.742,16.133-3.594,7.3-5.02,11.035T-159-3.086a9.79,9.79,0,0,1-1.387,2.3A2,2,0,0,1-161.914,0q-.84,0-1-.41a4.753,4.753,0,0,1-.156-1.484q0-1.074,3.145-18.437t3.633-18.262a3.265,3.265,0,0,1,.879-1.152A2.765,2.765,0,0,1-154-40a1.843,1.843,0,0,1,1.582.781,2.47,2.47,0,0,1,.566,1.387,4.6,4.6,0,0,1-.156,1.191q-.273,1.055-.82,2.617a101.052,101.052,0,0,0-3.594,15.156l-.82,4.727q.9-1.875,2.031-4.512t3.359-7.559A53.077,53.077,0,0,1-146.895-35q3.516-5.078,6.563-5.078,5.352,0,5.352,8.633a44.872,44.872,0,0,1-.918,8.086q-.918,4.844-2.031,10.586a61.94,61.94,0,0,0-1.23,9.492l-.469,2.148A2.253,2.253,0,0,1-139.883.1q-.254.371-1.523.371A2.876,2.876,0,0,1-143.242,0a1.712,1.712,0,0,1-.371-1.68l3.906-23.359A44.8,44.8,0,0,0-139-31.641Zm36.328-8.047a1.148,1.148,0,0,1,1.289,1.309,7.232,7.232,0,0,1-.469,2.559q-.469,1.25-1,3.223t-1.5,6.035q-.977,4.063-1.914,8.223t-1.816,8.3q-.879,4.141-1.738,7.969a27.646,27.646,0,0,0,2.949-2.344q1.465-1.328,2.461-2.129a2.945,2.945,0,0,1,1.7-.8q1.484,0,1.484,1.328a1.955,1.955,0,0,1-.664,1.6q-4.961,3.789-8.4,6.25l-2.3,11.758q-2.344,11.914-5.977,16.016a8.791,8.791,0,0,1-6.7,3.2,8.7,8.7,0,0,1-6.406-2.6,9.371,9.371,0,0,1-2.6-6.934q0-6.25,6.445-11.875,2.617-2.266,7.051-5.508t6.973-5.352q.352-1.758.84-3.848t.879-3.809q.391-1.719.781-3.4t.723-3.2q.332-1.523.605-2.617a43.764,43.764,0,0,1-4.453,10.469Q-118.691.625-121.641.625A5.853,5.853,0,0,1-126.406-1.6a9.107,9.107,0,0,1-1.816-5.937,45.285,45.285,0,0,1,2.578-14.473,41.434,41.434,0,0,1,7.109-13.164Q-114-40.7-108.613-40.7a9.529,9.529,0,0,1,4.883,1.25A2.326,2.326,0,0,1-102.676-39.687Zm-19.453,18.281a37.255,37.255,0,0,0-2.461,12.52q0,5.684,2.969,5.684,2.617,0,6.035-5.039a42.67,42.67,0,0,0,5.469-12.051q2.051-7.012,3.105-10.9t1.445-5.293a4.622,4.622,0,0,0-3.086-1.055q-3.555,0-7.266,4.648A40.633,40.633,0,0,0-122.129-21.406Zm7.7,26.289q-2.93,2.422-5.8,4.59a60.064,60.064,0,0,0-5.137,4.316q-5,4.8-5,9.082t1.875,5.41a4.85,4.85,0,0,0,2.5.508q3.437,0,5.8-3.73t4.551-13.848ZM-97.012-.156l1.8-9.531q1.406-7.3,1.914-10.371t1.152-6.758q.645-3.691,2.637-10.605a.96.96,0,0,1-.078-.352v-.391a2.857,2.857,0,0,1,1.445-2.7,1.649,1.649,0,0,1,.9-.273q1.68,0,1.68,2.422A20.737,20.737,0,0,1-86.7-33.652a68.149,68.149,0,0,0-1.758,6.777q.547-.9,1.348-2.266t2.539-3.984a26.16,26.16,0,0,1,4.375-4.98A8.072,8.072,0,0,1-74.8-40.469a5.6,5.6,0,0,1,4.2,1.484,1.683,1.683,0,0,1,.547,1.289,1.851,1.851,0,0,1-.7,1.406,2.169,2.169,0,0,1-1.445.625,2.834,2.834,0,0,1-1.445-.41,3.044,3.044,0,0,0-1.562-.41,5.745,5.745,0,0,0-2.734,1.406q-7.461,5.43-12.3,21.523a59.321,59.321,0,0,0-1.562,5.918Q-92.09-6.016-92.285-5q-1.172,6.289-3.594,6.289Q-97.012,1.289-97.012-.156ZM-65.957,0q-4.57,0-4.57-5.742t4.277-14.082A61.327,61.327,0,0,1-56.191-34.238q5.781-6.074,9.434-6.074t4.16,3.2q.156.977.234,2.07a1.514,1.514,0,0,1,.859-.234q1.836,0,1.836,1.758v.313q0,.117-.977,3.516a105.946,105.946,0,0,0-2.227,11.328A89.108,89.108,0,0,0-44.121-4.8q.352.234.82.527a10.19,10.19,0,0,1,1.172.9,1.83,1.83,0,0,1,.7,1.426,2.3,2.3,0,0,1-.508,1.465,1.733,1.733,0,0,1-1.445.645A4.4,4.4,0,0,1-46.836-1.8a6.673,6.673,0,0,1-1.543-4.219q0-4.883,2.656-16.8a66.259,66.259,0,0,1-8.594,13.4Q-59.59-2.969-61.6-1.484A7.188,7.188,0,0,1-65.957,0Zm-.586-5.586q0,1.445,1.211,1.445a1.964,1.964,0,0,0,1.445-.586Q-55.8-11.68-49.395-23.984a66.069,66.069,0,0,0,3.848-8.086,9.234,9.234,0,0,0,.215-1.8,2.73,2.73,0,0,0-.391-1.406,1.212,1.212,0,0,0-1.094-.664,4.959,4.959,0,0,0-2.07.742q-3.008,1.641-7.4,6.992a54.6,54.6,0,0,0-7.324,11.641Q-66.543-10.273-66.543-5.586ZM-25.254-36.8A36.6,36.6,0,0,0-31-36.406q-1.6-.156-1.6-1.367a2.353,2.353,0,0,1,.586-1.445,2.252,2.252,0,0,1,1.563-.859l5.781.156q.156-.82.332-1.973t.625-3.359a19.25,19.25,0,0,1,1.25-4q.8-1.8,2.09-1.8t1.289,1.445v.508Q-20.215-44.258-21-40h5.742q3.047,0,3.73.469a1.384,1.384,0,0,1,.684,1.172q0,1.367-1.68,1.8a16.081,16.081,0,0,1-3.457.234q-2.6,0-5.645-.234-.742,3.906-3.3,14.609T-27.48-8.145q0,3.105.7,4.082a2.1,2.1,0,0,0,1.719.625,3.165,3.165,0,0,0,2.07-.7,11.67,11.67,0,0,0,1.563-1.543q.7-.84,1.387-1.543a2.065,2.065,0,0,1,1.5-.7,1.416,1.416,0,0,1,1.6,1.6q0,.82-1.621,2.715A19.108,19.108,0,0,1-21.543-.7,6.615,6.615,0,0,1-25.527.313q-2.617,0-3.594-.9-2.031-1.8-2.031-5.742a29.4,29.4,0,0,1,.469-4.8l.742-4.531q.742-3.359,1.328-5.879t1.016-4.434q.43-1.914,1.133-4.98T-25.254-36.8ZM12.754,1.914q-2.383,0-2.383-6.406a46.624,46.624,0,0,1,.8-8.477q.8-4.336,1.66-8.477-1.445,2.578-2.734,5.293T7.832-11.777q-.977,1.66-1.562,2.793Q1.23.625-3.086.625T-7.4-7.93A103.813,103.813,0,0,1-3.926-32.812l1.211-4.844q.742-2.656,2.5-2.656,1.016,0,1.367,1.367a6.711,6.711,0,0,1-.625,2.3A9.152,9.152,0,0,0-.215-34.3Q-3.652-16.953-3.652-10.625l-.078,3.75q0,3.2,1.055,3.2,3.047,0,10.352-14.375,1.133-2.188,2.773-5.508t2.578-5.059q.938-1.738,1.68-3.34,3.086-6.758,5.313-6.758,1.367,0,1.367,1.5a14.465,14.465,0,0,1-1.523,4.941,49.125,49.125,0,0,0-2.5,7.031A100.007,100.007,0,0,0,13.887-4.258v.43a2.613,2.613,0,0,0,.488,1.738q.488.566.723.82a1.644,1.644,0,0,1,.234,1.055,1.845,1.845,0,0,1-.918,1.465A2.932,2.932,0,0,1,12.754,1.914Zm25.9-6.8A1.562,1.562,0,0,1,40.41-3.105q0,1.777-2.324,2.754a13.61,13.61,0,0,1-5.312.977,5.552,5.552,0,0,1-4.395-1.6,5.713,5.713,0,0,1-1.406-3.906,32.678,32.678,0,0,1,.254-4.238q.254-1.934.879-5.371t1.445-7.734q.82-4.3,1.836-9.219t2.07-10.039q1.055-5.117,2.129-10.156t2.051-9.59q.977-4.551,1.8-8.359T40.8-76.016a1.656,1.656,0,0,1,1.8-1.25q1.68,0,1.68,1.836v1.016q-1.523,7.3-3.008,14.219T36.211-36.211Q32.637-19.141,31.6-13.125A68.9,68.9,0,0,0,30.566-5.9a3.366,3.366,0,0,0,.742,2.148,2.175,2.175,0,0,0,1.738.938,4.8,4.8,0,0,0,1.816-.332q.82-.332,1.6-.7t1.406-.7A2.645,2.645,0,0,1,38.652-4.883ZM50.137,0q-4.57,0-4.57-5.742t4.277-14.082A61.327,61.327,0,0,1,59.9-34.238q5.781-6.074,9.434-6.074t4.16,3.2q.156.977.234,2.07a1.514,1.514,0,0,1,.859-.234q1.836,0,1.836,1.758v.313q0,.117-.977,3.516a105.948,105.948,0,0,0-2.227,11.328A89.108,89.108,0,0,0,71.973-4.8q.352.234.82.527a10.19,10.19,0,0,1,1.172.9,1.83,1.83,0,0,1,.7,1.426A2.3,2.3,0,0,1,74.16-.488a1.733,1.733,0,0,1-1.445.645A4.4,4.4,0,0,1,69.258-1.8a6.673,6.673,0,0,1-1.543-4.219q0-4.883,2.656-16.8a66.259,66.259,0,0,1-8.594,13.4Q56.5-2.969,54.492-1.484A7.188,7.188,0,0,1,50.137,0Zm-.586-5.586q0,1.445,1.211,1.445a1.964,1.964,0,0,0,1.445-.586Q60.293-11.68,66.7-23.984a66.068,66.068,0,0,0,3.848-8.086,9.235,9.235,0,0,0,.215-1.8,2.73,2.73,0,0,0-.391-1.406,1.212,1.212,0,0,0-1.094-.664,4.959,4.959,0,0,0-2.07.742Q64.2-33.555,59.8-28.2A54.6,54.6,0,0,0,52.48-16.562Q49.551-10.273,49.551-5.586ZM90.84-36.8a36.6,36.6,0,0,0-5.742.391q-1.6-.156-1.6-1.367a2.353,2.353,0,0,1,.586-1.445,2.252,2.252,0,0,1,1.563-.859l5.781.156q.156-.82.332-1.973t.625-3.359a19.25,19.25,0,0,1,1.25-4q.8-1.8,2.09-1.8t1.289,1.445v.508Q95.879-44.258,95.1-40h5.742q3.047,0,3.73.469a1.384,1.384,0,0,1,.684,1.172q0,1.367-1.68,1.8a16.081,16.081,0,0,1-3.457.234q-2.6,0-5.645-.234-.742,3.906-3.3,14.609T88.613-8.145q0,3.105.7,4.082a2.1,2.1,0,0,0,1.719.625,3.165,3.165,0,0,0,2.07-.7,11.67,11.67,0,0,0,1.563-1.543q.7-.84,1.387-1.543a2.065,2.065,0,0,1,1.5-.7,1.416,1.416,0,0,1,1.6,1.6q0,.82-1.621,2.715A19.107,19.107,0,0,1,94.551-.7,6.615,6.615,0,0,1,90.566.313q-2.617,0-3.594-.9-2.031-1.8-2.031-5.742a29.4,29.4,0,0,1,.469-4.8l.742-4.531q.742-3.359,1.328-5.879T88.5-25.977q.43-1.914,1.133-4.98T90.84-36.8ZM120.449-53.75a2.037,2.037,0,0,1,2.3,2.3q0,3.359-2.344,3.789a8.33,8.33,0,0,1-1.445.117,2.251,2.251,0,0,1-1.562-.781,2.723,2.723,0,0,1-.781-2.012,3.143,3.143,0,0,1,1.211-2.324A3.839,3.839,0,0,1,120.449-53.75Zm-5.508,18.242v-.781a14.29,14.29,0,0,0-.586-2.656,2.718,2.718,0,0,1,.664-1.777,2.033,2.033,0,0,1,1.621-.8,1.831,1.831,0,0,1,1.582,1.211,5.7,5.7,0,0,1,.625,2.656q0,1.445-3.672,17.266T111.5-3.73q0,.84.781.84.508,0,1.445-1a2.528,2.528,0,0,1,1.6-1q1.289,0,1.289,1.621T114.2-.43A9.324,9.324,0,0,1,110.684.781q-2.734,0-2.734-4.375a6.43,6.43,0,0,1,.371-2.012,28.789,28.789,0,0,0,.781-3.086q.41-1.973,1.172-5.371t1.563-7.031q.8-3.633,1.953-8.809T114.941-35.508ZM143.3-40.391q7.383,0,7.383,11.172,0,8.711-4.8,18.711-3.242,6.719-7.812,9.688A8.773,8.773,0,0,1,133.223.7a6.642,6.642,0,0,1-6.328-3.516,15.6,15.6,0,0,1-1.914-7.578,41.621,41.621,0,0,1,2.441-14.1,32.609,32.609,0,0,1,6.641-11.367Q138.262-40.391,143.3-40.391Zm-10.469,12.93a36.718,36.718,0,0,0-4.219,16.484q0,5.586,3.086,7.5a3.968,3.968,0,0,0,2.148.586q2.5,0,5.586-4.336a40.225,40.225,0,0,0,5.2-10.684,35.506,35.506,0,0,0,2.109-10.9q0-4.551-.527-5.762A3.837,3.837,0,0,0,145-36.25a4.14,4.14,0,0,0-2.266-.469,6.36,6.36,0,0,0-3.457,1.25Q135.645-33.125,132.832-27.461Zm47.5-4.18q0-3.867-2.109-3.867-2.812,0-10.742,16.133-3.594,7.3-5.02,11.035t-2.129,5.254a9.79,9.79,0,0,1-1.387,2.3A2,2,0,0,1,157.422,0q-.84,0-1-.41a4.753,4.753,0,0,1-.156-1.484q0-1.074,3.145-18.437t3.633-18.262a3.265,3.265,0,0,1,.879-1.152A2.765,2.765,0,0,1,165.332-40a1.843,1.843,0,0,1,1.582.781,2.47,2.47,0,0,1,.566,1.387,4.6,4.6,0,0,1-.156,1.191q-.273,1.055-.82,2.617a101.052,101.052,0,0,0-3.594,15.156l-.82,4.727q.9-1.875,2.031-4.512t3.359-7.559A53.077,53.077,0,0,1,172.441-35q3.516-5.078,6.563-5.078,5.352,0,5.352,8.633a44.872,44.872,0,0,1-.918,8.086q-.918,4.844-2.031,10.586a61.94,61.94,0,0,0-1.23,9.492l-.469,2.148A2.253,2.253,0,0,1,179.453.1q-.254.371-1.523.371A2.876,2.876,0,0,1,176.094,0a1.712,1.712,0,0,1-.371-1.68l3.906-23.359A44.8,44.8,0,0,0,180.332-31.641Zm23.516-5.7q-3.906,0-3.906,4.531a15.407,15.407,0,0,0,1.406,6.211q1.406,3.2,2.383,5.117,3.789,7.539,3.789,11.543A10.09,10.09,0,0,1,205.1-3.125,10.458,10.458,0,0,1,198.105.234H197.6q-4.414,0-6.406-5.43a.96.96,0,0,1-.078-.352v-.391a1.863,1.863,0,0,1,.508-1.348,2.093,2.093,0,0,1,1.094-.645h.43a1.537,1.537,0,0,1,1.27.625,11.131,11.131,0,0,1,.918,1.387,9.928,9.928,0,0,0,.938,1.387,2.15,2.15,0,0,0,1.758.625,5.58,5.58,0,0,0,4.238-1.66,5.234,5.234,0,0,0,1.582-3.691,11.91,11.91,0,0,0-.586-3.789,49.307,49.307,0,0,0-3.359-7.5q-3.984-7.383-3.984-11.484a10.5,10.5,0,0,1,2.07-6.719,7.04,7.04,0,0,1,5.859-2.617,7.871,7.871,0,0,1,4.023.977q3.164,1.836,3.164,4.121t-1.914,2.285a1.445,1.445,0,0,1-1.152-.527q-.449-.527-.957-1.152A4.007,4.007,0,0,0,203.848-37.344Zm31.367-50.664q1.016,0,1.367,1.367a68.851,68.851,0,0,1-1.016,8.516q-.9,5.312-1.836,13.457t-3.594,22.207Q227.48-28.4,224.16-14.414a2.38,2.38,0,0,1-2.227,1.6q-1.211,0-1.367-1.6a498.416,498.416,0,0,0,10.156-55.82q.508-4.023,1.25-7.93a57.317,57.317,0,0,0,.938-7.93,2.81,2.81,0,0,1,.9-1.348A2.137,2.137,0,0,1,235.215-88.008Zm-15.9,89.844a2.266,2.266,0,0,1-1.6-2.324,3.623,3.623,0,0,1,1.426-2.91,4.421,4.421,0,0,1,2.773-1.172,2.447,2.447,0,0,1,2.051.9,3.6,3.6,0,0,1,.7,2.285,7.066,7.066,0,0,1-1.113,3.34,3.3,3.3,0,0,1-2.91,1.953,1.388,1.388,0,0,1-1.055-.41,1.279,1.279,0,0,1-.391-.9A1.987,1.987,0,0,1,219.316,1.836Z" transform="translate(237.246 88.008)"/></svg>